# xmcd CD database file generated by GCD 2.96
# 
# Track frame offsets:
#       150
#       1022
#       14690
#       26722
#       37600
#       46010
#       57217
#       72787
#       90775
#       104722
#       142367
#       154197
#       168457
#       188960
#       201042
#       215667
# 
# Disc length: 2888 seconds
# 
# Revision: 0
# Processed by: cddbd v1.4PL0 Copyright (c) Steve Scherf et al.
# Submitted via: GCD 2.96
# 
DISCID=d40b4610
DTITLE=Lothar Lässer and Rudi Widerhofer - Futilitates - Schamlose Volkslieder
DYEAR=1900
DGENRE=
TTITLE0=Bauernregel
TTITLE1=Spittelberger Lieder
TTITLE2=Waena Madln
TTITLE3=Stoßseufzer
TTITLE4=Ri ra rutt
TTITLE5=Die Hochzeit
TTITLE6=Ich ging auf einer Wiesen...
TTITLE7=Die Wirtin an der Lahn
TTITLE8=Am Bache
TTITLE9=Die Puffmutti
TTITLE10=Der Floh
TTITLE11=De alte Hur
TTITLE12=Zerst ham ma uns busselt...
TTITLE13=Der Abschied
TTITLE14=Es blühte der Flieder in Wien
TTITLE15=Neujahrsgruß
EXTD=
EXTT0=
EXTT1=
EXTT2=
EXTT3=
EXTT4=
EXTT5=
EXTT6=
EXTT7=
EXTT8=
EXTT9=
EXTT10=
EXTT11=
EXTT12=
EXTT13=
EXTT14=
EXTT15=
PLAYORDER=
